<?xml version="1.0" encoding="UTF-8"?><svg xmlns="http://www.w3.org/2000/svg" viewBox="0 0 1556.47 383.01"><defs><style>.c{fill:#fff;}.d{fill:#ffce07;}.e{fill:#90c13e;}.f{fill:#3db54a;}</style></defs><g id="a"><circle class="d" cx="107.76" cy="72.05" r="60.94"/><circle class="d" cx="205.78" cy="72.05" r="60.94"/><circle class="d" cx="304.03" cy="72.05" r="60.94"/><rect class="f" x="10.4" y="132.99" width="390.82" height="241.9"/><rect class="e" x="10.4" y="132.99" width="369.53" height="158.61"/><g><path class="c" d="M447.42,121.99h41.12v224.28h67.66v37.38h-108.78V121.99Z"/><path class="c" d="M570.77,184.79c0-41.87,22.05-65.79,62.43-65.79s62.42,23.92,62.42,65.79v136.06c0,41.87-22.05,65.79-62.42,65.79s-62.43-23.92-62.43-65.79V184.79Zm41.12,138.68c0,18.69,8.22,25.79,21.31,25.79s21.31-7.1,21.31-25.79V182.17c0-18.69-8.22-25.79-21.31-25.79s-21.31,7.1-21.31,25.79v141.3Z"/><path class="c" d="M710.2,121.99h127.09v37.38h-42.99v224.28h-41.12V159.37h-42.99v-37.38Z"/><path class="c" d="M851.86,184.79c0-41.87,22.05-65.79,62.43-65.79s62.42,23.92,62.42,65.79v136.06c0,41.87-22.05,65.79-62.42,65.79s-62.43-23.92-62.43-65.79V184.79Zm41.12,138.68c0,18.69,8.22,25.79,21.31,25.79s21.31-7.1,21.31-25.79V182.17c0-18.69-8.22-25.79-21.31-25.79s-21.31,7.1-21.31,25.79v141.3Z"/><path class="e" d="M1125.11,186.66v34.02c0,41.87-20.19,64.67-61.3,64.67h-19.44v98.31h-41.12V121.99h60.56c41.12,0,61.3,22.8,61.3,64.67Zm-80.74-27.29v88.59h19.44c13.08,0,20.19-5.98,20.19-24.67v-39.25c0-18.69-7.1-24.67-20.19-24.67h-19.44Z"/><path class="e" d="M1146.04,121.99h41.12v224.28h67.66v37.38h-108.78V121.99Z"/><path class="e" d="M1405.83,383.65h-41.49l-7.1-47.47h-50.46l-7.1,47.47h-37.75l41.87-261.66h60.18l41.87,261.66Zm-93.82-82.98h39.62l-19.81-132.33-19.81,132.33Z"/><path class="e" d="M1463.39,296.93l-51.96-174.94h42.99l31.4,119.24,31.4-119.24h39.25l-51.96,174.94v86.72h-41.12v-86.72Z"/></g></g><g id="b"><g><path d="M1.08,383.01c.04-12.33,.1-24.65,.11-36.98,.01-71.28,0-142.55,0-213.83v-6.26H65.29c-18.78-16.72-27.69-36.25-25.78-60,1.36-16.89,8.44-31.17,20.79-42.86,22.3-21.12,65.31-29.3,96.4,1.91,14.24-14.12,31.46-21,51.57-20.57,12.94,.28,24.8,3.81,35.87,11.54-2.64,3.91-5.15,7.64-7.32,10.86-7.16-2.54-13.74-5.73-20.68-7.18-32.07-6.72-63.28,18.7-63.61,51.42-.23,22.41,11.72,41.05,31.98,49.86,20.06,8.73,42.54,4.87,58.13-9.81,2.77-2.61,3.48-4.47,1.52-8.35-11.77-23.29-10-46.29,4.1-67.84,14.05-21.47,34.42-32.12,60.3-30.45,29.8,1.92,50.04,17.7,59.72,45.5,9.62,27.6,3.35,52.23-18.15,72.55-.78,.74-1.57,1.47-3.25,3.04h63.77c0,2.63,0,4.63,0,6.63,0,81.55,0,163.1,0,244.64,0,2.05,.07,4.11,.11,6.16H1.08Zm14.99-242.7v167.5H395.88V140.32H16.08Zm-.15,228.17H395.79v-15.97h-136.42v-14.17h136.51v-15.75H15.93v15.82H152.45v14.32H15.93v15.74ZM358.12,72c.55-28-23.28-52.71-51.35-53.25-30.53-.6-54.9,22.17-55.48,51.84-.59,30.2,21.67,54.03,50.98,54.57,32.2,.6,55.23-21.31,55.85-53.16ZM107.17,125.48c14.81,.13,27.38-5.14,37.9-15.53,1.98-1.95,2.22-3.42,.88-6.07-10.67-21.14-10.67-42.43,.02-63.56,1.33-2.63,1.14-4.08-.88-6.06-12.15-11.94-26.78-17.22-43.57-15.21-29.03,3.47-49.25,27.38-47.68,55.65,1.61,28.87,24.06,50.25,53.33,50.78Zm42.39-.12h13.87c-2.6-2.44-4.6-4.32-6.79-6.36-2.16,1.94-4.12,3.7-7.09,6.36Zm98.89,.03h13.85c-2.82-2.56-4.92-4.48-7.08-6.44-2.31,2.2-4.22,4.01-6.77,6.44Z"/><path d="M189.1,72.16c-7.79-12.22-6.85-24.32,2.3-32.23,8.09-6.99,20.54-7.1,28.72-.26,9.44,7.89,10.49,19.9,2.82,32.27,7.66,14.52,6.45,25.61-3.63,33.29-8.49,6.47-20.44,5.93-28.26-1.29-8.91-8.21-9.66-19.79-1.94-31.79Zm16.86-7.47c4.58-.02,7.72-3.13,7.75-7.69,.04-4.51-3.14-7.81-7.59-7.91-4.69-.1-8.06,3.27-7.98,7.98,.07,4.56,3.22,7.63,7.82,7.61Zm7.75,22.6c-.02-4.58-3.15-7.75-7.68-7.81-4.72-.06-8,3.29-7.9,8.07,.09,4.4,3.53,7.71,7.92,7.64,4.4-.07,7.68-3.46,7.66-7.9Z"/><path d="M266.83,170.22v-13.79h113.09v135.16h-112.9v-13.79c17.76-1.03,32.67-8.07,43.29-22.94,7.86-11,10.76-23.33,9.51-36.74-1.82-19.59-17.59-45.82-53-47.91Zm42.05,.44c17.29,14.37,25.48,32.13,25.52,53.27,.04,21.27-8.3,39.11-25.47,53.46h56.49v-106.72h-56.53Z"/><path d="M31.94,156.31h112.88v13.98c-17.03,1.15-32.02,7.1-42.56,21.49-7.88,10.75-10.98,22.98-10.13,36.17,1.3,20.24,14.57,46.91,53.08,49.94v13.73H31.94V156.31Zm71.08,121.12c-17.18-14.34-25.5-32.04-25.57-53.16-.07-21.31,8.2-39.17,25.21-53.4H46.39v106.56h56.63Z"/><path d="M205.78,291.93c-37.06-.03-68.16-30.88-67.9-67.36,.27-38.88,29.6-68.38,68.19-68.05,36.88,.32,67.03,25.61,67.75,68.34,.62,36.69-30.86,67.09-68.05,67.06Zm.18-14.87c30.71-.02,53.38-22.82,53.38-53.69,0-28.95-24.01-52.8-53.2-52.86-29.7-.05-53.67,23.82-53.6,53.39,.07,30.42,22.93,53.16,53.43,53.15Z"/><path d="M168.22,338.63h14.6v13.74h-14.6v-13.74Z"/><path d="M198.53,352.27v-13.54h14.72v13.54h-14.72Z"/><path d="M243.69,338.8v13.56h-14.74v-13.56h14.74Z"/><path d="M311.64,102.29h-13.95V41.96h13.95v60.34Z"/><path d="M129.39,102.21h-14.3v-22.72h-30.02V42.02h14.11v22.62h15.8v-22.72h14.41v60.29Z"/><path d="M190.8,247.05h30.22v-15.82c-1.69,0-3.51,0-5.34,0-9.16,0-18.33,.05-27.49-.02-7.47-.06-12.04-4.19-12.3-11.49-.25-7.26-.25-14.54,0-21.8,.25-7.18,4.59-11.17,11.84-11.37,3.44-.09,6.88-.02,10.59-.02l.51-7.86h14.12c.16,2.24,.34,4.68,.53,7.33,6.86,1.9,16.04-2.69,20.26,5.51,2.43,4.71,2.14,10.82,3.18,16.93h-15.26c-.19-2.49-.36-4.79-.55-7.33h-30.26v15.75c7.42,0,14.65,0,21.88,0,3.79,0,7.59-.08,11.38,.03,7.27,.23,11.58,4.21,11.83,11.4,.26,7.26,.26,14.54,0,21.8-.27,7.33-4.83,11.37-12.31,11.46-3.29,.04-6.58,0-10.12,0-.18,2.71-.34,5.02-.52,7.74h-14.16c-.16-2.56-.31-4.88-.46-7.35-6.97-1.54-16.08,2.7-20.3-5.49-2.48-4.81-2.11-11.09-3.1-17.18h15.13c.23,2.62,.44,5.07,.68,7.75Z"/></g></g></svg>