<?xml version="1.0" encoding="UTF-8"?><svg xmlns="http://www.w3.org/2000/svg" viewBox="0 0 2051.61 383.01"><defs><style>.c{fill:#ffce07;}.d{fill:#90c13e;}.e{fill:#3db54a;}.f{fill:#231f20;}</style></defs><g id="a"><circle class="c" cx="106.39" cy="68.56" r="61.62"/><circle class="c" cx="205.51" cy="68.56" r="61.62"/><circle class="c" cx="304.87" cy="68.56" r="61.62"/><rect class="e" x="7.94" y="130.18" width="395.21" height="244.62"/><rect class="d" x="7.94" y="130.18" width="373.68" height="160.39"/><g><path class="f" d="M449.45,4.32h59.4V328.32h97.74v54h-157.14V4.32Z"/><path class="f" d="M627.65,95.04C627.65,34.56,659.51,0,717.83,0s90.18,34.56,90.18,95.04v196.56c0,60.48-31.86,95.04-90.18,95.04s-90.18-34.56-90.18-95.04V95.04Zm59.4,200.34c0,27,11.88,37.26,30.78,37.26s30.78-10.26,30.78-37.26V91.26c0-27-11.88-37.26-30.78-37.26s-30.78,10.26-30.78,37.26v204.12Z"/><path class="f" d="M829.07,4.32h183.6V58.32h-62.1V382.32h-59.4V58.32h-62.1V4.32Z"/><path class="f" d="M1033.72,95.04C1033.72,34.56,1065.58,0,1123.9,0s90.18,34.56,90.18,95.04v196.56c0,60.48-31.86,95.04-90.18,95.04s-90.18-34.56-90.18-95.04V95.04Zm59.4,200.34c0,27,11.88,37.26,30.78,37.26s30.78-10.26,30.78-37.26V91.26c0-27-11.88-37.26-30.78-37.26s-30.78,10.26-30.78,37.26v204.12Z"/><path class="d" d="M1428.46,97.74v49.14c0,60.48-29.16,93.42-88.56,93.42h-28.08v142.02h-59.4V4.32h87.48c59.4,0,88.56,32.94,88.56,93.42Zm-116.64-39.42v127.98h28.08c18.9,0,29.16-8.64,29.16-35.64v-56.7c0-27-10.26-35.64-29.16-35.64h-28.08Z"/><path class="d" d="M1458.69,4.32h59.4V328.32h97.74v54h-157.14V4.32Z"/><path class="d" d="M1833.99,382.32h-59.94l-10.26-68.58h-72.9l-10.26,68.58h-54.54L1686.57,4.32h86.94l60.48,378Zm-135.54-119.88h57.24l-28.62-191.16-28.62,191.16Z"/><path class="d" d="M1917.15,257.04L1842.09,4.32h62.1l45.36,172.26L1994.91,4.32h56.7l-75.06,252.72v125.28h-59.4v-125.28Z"/></g></g><g id="b"><g><path d="M-1.48,383.01c.04-12.46,.1-24.93,.11-37.39,.01-72.08,0-144.15,0-216.23v-6.33H63.44c-18.99-16.91-28-36.65-26.07-60.68,1.37-17.08,8.54-31.52,21.02-43.34,22.55-21.35,66.04-29.63,97.48,1.93C170.27,6.71,187.69-.25,208.02,.19c13.08,.28,25.08,3.85,36.27,11.67-2.67,3.96-5.21,7.73-7.41,10.98-7.24-2.57-13.89-5.79-20.91-7.27-32.43-6.8-64,18.91-64.33,52-.23,22.67,11.86,41.51,32.34,50.42,20.29,8.83,43.02,4.92,58.79-9.92,2.8-2.64,3.52-4.52,1.54-8.44-11.91-23.56-10.12-46.81,4.15-68.6C262.68,9.32,283.27-1.45,309.45,.24c30.13,1.94,50.6,17.9,60.39,46.01,9.72,27.91,3.39,52.82-18.35,73.36-.79,.75-1.59,1.49-3.28,3.08h64.48c0,2.66,0,4.68,0,6.71,0,82.46,0,164.93,0,247.39,0,2.08,.07,4.15,.11,6.23H-1.48ZM13.68,137.59v169.38H397.75V137.59H13.68Zm-.15,230.74H397.66v-16.15h-137.95v-14.33h138.05v-15.92H13.53v16H151.58v14.48H13.53v15.92ZM359.56,68.51c.55-28.31-23.54-53.3-51.93-53.85-30.87-.6-55.52,22.42-56.1,52.42-.6,30.54,21.91,54.63,51.56,55.18,32.57,.61,55.85-21.55,56.48-53.75ZM105.8,122.59c14.97,.13,27.68-5.19,38.32-15.7,2-1.97,2.25-3.45,.89-6.14-10.79-21.37-10.79-42.9,.02-64.27,1.35-2.66,1.15-4.13-.89-6.13-12.29-12.08-27.08-17.41-44.05-15.38-29.35,3.51-49.8,27.69-48.21,56.27,1.62,29.19,24.33,50.82,53.92,51.36Zm42.87-.13h14.03c-2.63-2.47-4.66-4.36-6.86-6.43-2.19,1.96-4.16,3.74-7.17,6.43Zm100,.03h14.01c-2.85-2.59-4.98-4.53-7.16-6.51-2.33,2.22-4.26,4.06-6.85,6.51Z"/><path d="M188.64,68.67c-7.87-12.35-6.92-24.6,2.32-32.59,8.18-7.06,20.77-7.18,29.04-.26,9.54,7.98,10.6,20.13,2.85,32.63,7.74,14.69,6.52,25.9-3.67,33.66-8.58,6.54-20.67,5.99-28.58-1.3-9.01-8.3-9.77-20.01-1.96-32.15Zm17.05-7.56c4.63-.02,7.8-3.16,7.84-7.77,.04-4.56-3.17-7.9-7.68-7.99-4.74-.1-8.15,3.31-8.07,8.07,.07,4.62,3.26,7.71,7.91,7.69Zm7.84,22.85c-.02-4.63-3.19-7.84-7.77-7.9-4.77-.06-8.09,3.33-7.99,8.16,.09,4.44,3.57,7.8,8.01,7.73,4.45-.07,7.77-3.5,7.75-7.99Z"/><path d="M267.25,167.83v-13.94h114.36v136.68h-114.17v-13.94c17.96-1.05,33.04-8.16,43.78-23.2,7.95-11.12,10.88-23.59,9.62-37.15-1.84-19.81-17.79-46.34-53.59-48.45Zm42.52,.45c17.48,14.53,25.76,32.49,25.8,53.87,.04,21.51-8.39,39.55-25.76,54.06h57.12v-107.92h-57.17Z"/><path d="M29.72,153.77h114.15v14.14c-17.22,1.17-32.38,7.18-43.04,21.73-7.96,10.87-11.1,23.24-10.25,36.57,1.31,20.46,14.73,47.44,53.67,50.5v13.88H29.72V153.77Zm71.87,122.48c-17.37-14.51-25.79-32.4-25.86-53.76-.07-21.55,8.29-39.61,25.5-54H44.33v107.76h57.27Z"/><path d="M205.51,290.9c-37.47-.03-68.92-31.22-68.66-68.11,.28-39.32,29.93-69.15,68.96-68.81,37.3,.32,67.78,25.9,68.52,69.11,.63,37.1-31.21,67.84-68.81,67.81Zm.18-15.03c31.05-.02,53.98-23.08,53.98-54.29,0-29.27-24.28-53.4-53.8-53.45-30.03-.05-54.27,24.09-54.2,53.99,.07,30.76,23.19,53.76,54.03,53.74Z"/><path d="M167.53,338.13h14.76v13.89h-14.76v-13.89Z"/><path d="M198.17,351.92v-13.69h14.88v13.69h-14.88Z"/><path d="M243.85,338.3v13.72h-14.91v-13.72h14.91Z"/><path d="M312.56,99.14h-14.1V38.13h14.1v61.02Z"/><path d="M128.26,99.06h-14.46v-22.98h-30.36V38.2h14.27v22.87h15.97v-22.98h14.58v60.97Z"/><path d="M190.36,245.52h30.56v-15.99c-1.71,0-3.55,0-5.4,0-9.27,0-18.54,.05-27.8-.02-7.55-.06-12.17-4.24-12.43-11.62-.26-7.34-.25-14.71,0-22.05,.25-7.26,4.64-11.3,11.98-11.49,3.48-.09,6.96-.02,10.7-.02l.52-7.95h14.28c.17,2.27,.34,4.74,.54,7.41,6.94,1.93,16.22-2.72,20.49,5.57,2.45,4.76,2.16,10.94,3.22,17.12h-15.43c-.19-2.51-.36-4.84-.55-7.42h-30.6v15.93c7.51,0,14.82,0,22.13,0,3.83,0,7.67-.09,11.5,.03,7.35,.23,11.71,4.25,11.97,11.53,.26,7.34,.27,14.71,0,22.05-.27,7.41-4.89,11.5-12.45,11.59-3.33,.04-6.65,0-10.23,0-.18,2.74-.34,5.07-.53,7.83h-14.31c-.16-2.59-.31-4.93-.47-7.44-7.05-1.56-16.26,2.73-20.53-5.55-2.51-4.87-2.14-11.22-3.14-17.37h15.3c.23,2.65,.45,5.13,.69,7.83Z"/></g></g></svg>